<?xml version="1.0" encoding="UTF-8"?>
<svg version="1.1" viewBox="0 0 1600 1200" width="1280" height="1280" xmlns="http://www.w3.org/2000/svg">
<path transform="translate(0)" d="m0 0h1600v1200h-1600v-1200z" fill="#000002"/>
<path transform="translate(360 430)" d="m0 0c0.864-0.0057 1.73-0.0114 2.62-0.0173 1.83-0.00942 3.65-0.016 5.48-0.0198 2.74-0.00961 5.48-0.0406 8.22-0.0723 11-0.0653 21 0.834 31.7 3.31 1.08 0.234 2.15 0.467 3.26 0.708 8.55 1.89 16.6 5.06 24.7 8.29 1.2 0.476 1.2 0.476 2.42 0.961 2.23 0.943 4.4 1.97 6.58 3.04 0.583 0.281 1.17 0.563 1.77 0.853 16.4 8 30.1 18.5 43.2 31.1 0.776 0.713 1.55 1.43 2.35 2.16 14.2 13.4 25.7 32.1 33.6 49.8 0.405 0.88 0.81 1.76 1.23 2.67 18.3 41.6 18.2 89.4 1.82 132-1.88 4.55-4.03 8.91-6.36 13.2-0.396 0.737-0.792 1.47-1.2 2.23-22.5 41.4-59.9 71.3-105 84.6-40.4 11-89 6.37-126-14.2-0.984-0.563-0.984-0.563-1.99-1.14-0.74-0.422-1.48-0.844-2.24-1.28-9.59-5.53-18.5-11.3-26.8-18.7-1.27-1.11-1.27-1.11-2.57-2.24-2.51-2.22-4.98-4.47-7.43-6.76-1.13-1.04-1.13-1.04-2.27-2.11-20-19.3-34.8-46.1-41.7-72.9-0.184-0.694-0.368-1.39-0.558-2.1-11.1-42.8-5.01-87.9 16.5-126 2.61-4.41 5.4-8.7 8.21-13 0.503-0.766 1.01-1.53 1.52-2.32 2.8-4.17 5.68-7.72 9.35-11.2 1.06-1.2 2.1-2.4 3.12-3.62 7.24-8.32 14.9-15.9 23.9-22.4 1.01-0.77 2.03-1.54 3.07-2.33 8.8-6.59 18.1-11.8 27.9-16.7 0.819-0.409 1.64-0.817 2.48-1.24 2.15-1.01 4.31-1.9 6.52-2.76 1.19-0.471 2.38-0.941 3.61-1.43 10.9-4.15 21.9-6.6 33.4-8.57 0.895-0.177 1.79-0.353 2.71-0.535 4.11-0.581 8.13-0.647 12.3-0.668z" fill="#000002"/>
<path transform="translate(318 571)" d="m0 0c1.21 0.00277 1.21 0.00277 2.45 0.00559 0.928-0.00275 1.86-0.0055 2.81-0.00833 1.53 0.0108 1.53 0.0108 3.1 0.0218 1.61-4.38e-4 1.61-4.38e-4 3.25-8.85e-4 3.56 0.0014 7.12 0.017 10.7 0.0326 2.46 0.00373 4.93 0.00658 7.39 0.00858 6.49 0.00765 13 0.0273 19.5 0.0494 6.62 0.0204 13.2 0.0296 19.9 0.0397 13 0.0215 26 0.0552 39 0.0977 1.13 2.27 1.13 3.51 1.13 6.03 0.0064 1.26 0.0064 1.26 0.0129 2.55-6.8e-4 1.39-6.8e-4 1.39-0.00137 2.81 0.00336 0.974 0.00672 1.95 0.0102 2.95 0.00953 3.23 0.0115 6.47 0.0125 9.7 0.00321 2.24 0.00658 4.49 0.0101 6.73 6e-3 4.71 0.00784 9.43 0.00725 14.1-1.01e-4 6.03 0.0135 12.1 0.0308 18.1 0.0111 4.64 0.0131 9.28 0.0126 13.9 0.00118 2.22 0.0056 4.45 0.0133 6.67 0.00982 3.12 0.00691 6.23 8.95e-4 9.35 0.00562 0.916 0.0112 1.83 0.017 2.78-0.0332 6.78-0.731 12.8-4.82 18.4-0.652 0.949-0.652 0.949-1.32 1.92-8.16 7.29-18.3 6.47-28.6 6.39-1.69 1.55e-4 -3.39 0.00165-5.08 0.00441-3.54 0.00138-7.08-0.0111-10.6-0.034-4.52-0.0284-9.04-0.0256-13.6-0.0129-3.49 0.00698-6.99-8.56e-4 -10.5-0.0133-1.67-0.00449-3.33-0.00487-5-9.35e-4 -2.33 0.00293-4.66-0.0137-7-0.0354-0.677 0.0045-1.35 9e-3 -2.05 0.0136-6.76-0.104-12.9-2.12-18.1-6.61-0.636-0.53-1.27-1.06-1.93-1.61-4.91-6.15-5.2-12.9-5.13-20.4-0.00548-1.49-0.00548-1.49-0.0111-3.01-0.00806-3.26 0.00546-6.52 0.0201-9.78 5.19e-4 -2.27 4.85e-8 -4.54-0.00151-6.81 8.95e-5 -4.75 0.0105-9.49 0.0286-14.2 0.0228-6.09 0.0232-12.2 0.0165-18.3-0.00333-4.68 0.00328-9.36 0.0131-14 0.00386-2.25 5e-3 -4.5 0.00341-6.74-3.69e-4 -3.13 0.0122-6.26 0.0285-9.39-0.00248-0.934-0.00495-1.87-0.00751-2.83 0.00708-0.849 0.0142-1.7 0.0215-2.57 0.00205-0.74 0.00411-1.48 0.00622-2.24 0.385-2.75 1.49-3.72 4.22-4.06z" fill="#A0C27B"/>
<path transform="translate(360 430)" d="m0 0c0.864-0.0057 1.73-0.0114 2.62-0.0173 1.83-0.00942 3.65-0.016 5.48-0.0198 2.74-0.00961 5.48-0.0406 8.22-0.0723 11-0.0653 21 0.834 31.7 3.31 1.08 0.234 2.15 0.467 3.26 0.708 8.55 1.89 16.6 5.06 24.7 8.29 1.2 0.476 1.2 0.476 2.42 0.961 2.23 0.943 4.4 1.97 6.58 3.04 0.583 0.281 1.17 0.563 1.77 0.853 16.4 8 30.1 18.5 43.2 31.1 0.776 0.713 1.55 1.43 2.35 2.16 14.2 13.4 25.7 32.1 33.6 49.8 0.405 0.88 0.81 1.76 1.23 2.67 18.3 41.6 18.2 89.4 1.82 132-1.88 4.55-4.03 8.91-6.36 13.2-0.396 0.737-0.792 1.47-1.2 2.23-22.5 41.4-59.9 71.3-105 84.6-40.4 11-89 6.37-126-14.2-0.984-0.563-0.984-0.563-1.99-1.14-0.74-0.422-1.48-0.844-2.24-1.28-9.59-5.53-18.5-11.3-26.8-18.7-1.27-1.11-1.27-1.11-2.57-2.24-2.51-2.22-4.98-4.47-7.43-6.76-1.13-1.04-1.13-1.04-2.27-2.11-20-19.3-34.8-46.1-41.7-72.9-0.184-0.694-0.368-1.39-0.558-2.1-11.1-42.8-5.01-87.9 16.5-126 2.61-4.41 5.4-8.7 8.21-13 0.503-0.766 1.01-1.53 1.52-2.32 2.8-4.17 5.68-7.72 9.35-11.2 1.06-1.2 2.1-2.4 3.12-3.62 7.24-8.32 14.9-15.9 23.9-22.4 1.01-0.77 2.03-1.54 3.07-2.33 8.8-6.59 18.1-11.8 27.9-16.7 0.819-0.409 1.64-0.817 2.48-1.24 2.15-1.01 4.31-1.9 6.52-2.76 1.19-0.471 2.38-0.941 3.61-1.43 10.9-4.15 21.9-6.6 33.4-8.57 0.895-0.177 1.79-0.353 2.71-0.535 4.11-0.581 8.13-0.647 12.3-0.668zm-38 20.2c-1.13 0.38-2.26 0.761-3.43 1.15-41.6 15.1-72.9 45.1-91.7 84.9-17.1 36.8-18.3 78.8-4.92 117 6.21 16.3 14.3 31.9 26 45 0.789 0.897 1.58 1.79 2.39 2.72 3.75 4.22 7.56 8.34 11.6 12.3 0.476 0.502 0.952 1 1.44 1.52 26.2 27.3 65.8 40.8 103 42.6 20.7 0.133 41.3-2.85 60.7-10.2 0.936-0.345 1.87-0.691 2.84-1.05 21.3-8.33 39.3-22.1 55.5-38 0.57-0.56 1.14-1.12 1.73-1.7 2.99-2.63 2.99-2.63 3.96-6.24 0.99-0.33 1.98-0.66 3-1 0.965-1.34 1.92-2.7 2.79-4.11 1.21-1.89 1.21-1.89 2.67-3.84 24.4-32.7 32.1-75.8 26.8-116-0.577-3.48-1.35-6.87-2.22-10.3-0.209-0.843-0.419-1.69-0.634-2.55-2.78-11-6.03-21.4-11.4-31.4-0.323-0.616-0.647-1.23-0.98-1.87-6.9-13.1-14.8-25.1-24.9-35.9-1.95-2.09-3.8-4.24-5.65-6.43-9.78-11.1-22.8-19.7-35.9-26.5-1.96-1.02-3.88-2.13-5.78-3.26-33.7-19.3-80.9-19.1-117-7.05z" fill="#A0C27B"/>
<path transform="translate(389 505)" d="m0 0c1.05 0.0358 1.05 0.0358 2.11 0.0724 5.96 0.341 9.07 2.23 13.3 6.28 2.99 3.78 2.98 7.5 2.98 12.2-0.361 4.99-0.361 4.99 1.25 9.19 1.41 0.121 2.82 0.18 4.23 0.211 0.868 0.0284 1.74 0.0567 2.63 0.0859 1.82 0.0514 3.65 0.0959 5.47 0.133 6.27 0.222 11.8 0.677 16.5 5.37 2.69 4.53 4.28 7.81 3.22 13.2-2.08 3.52-4.28 7.14-8 9-11.9 1.66-24.1 1.15-36 1.13-2.22 6.75e-4 -4.45 0.00165-6.67 0.0029-4.64 0.00147-9.28-6.46e-4 -13.9-0.00534-5.93-0.00571-11.9-0.0024-17.8 0.00357-4.58 0.00362-9.17 0.00246-13.8-1.28e-4 -2.19-6.64e-4 -4.37 1.41e-4 -6.56 0.00248-3.06 0.00255-6.11-0.00135-9.17-0.0069-1.34 0.00304-1.34 0.00304-2.7 0.00613-17.7-0.0591-17.7-0.0591-24.4-6.14-2.26-4.26-2.34-7.4-1-12 2.38-4.76 4.97-7.13 9.73-9.25 7.06-2.33 14-1.8 21.3-0.75-0.0522-1.03-0.0522-1.03-0.105-2.09-0.212-7.37-0.205-14.3 5.02-20 5.22-4.66 8.37-6.08 15.3-6.27 0.734-0.0232 1.47-0.0463 2.22-0.0702 1.56-0.0477 3.13-0.0929 4.69-0.136 2.33-0.0657 4.66-0.144 6.99-0.224 7.74-0.24 15.4-0.284 23.2 0.0703z" fill="#A0C27B"/>
<path transform="translate(950,530)" d="m0 0c-0.0909 1.95-0.0909 1.95-0.184 3.95-0.596 13.3-1.03 26.6-1.38 39.9-0.0221 0.834-0.0443 1.67-0.0671 2.53-0.0629 2.38-0.125 4.77-0.187 7.15-0.0187 0.723-0.0374 1.45-0.0567 2.19-0.0941 3.63-0.0941 3.63-0.127 7.25 3.57-2.05 6.76-4.34 10-6.88 6.94-5.09 14.3-8.35 22.8-9.75 7.29 1.43 11.7 5.74 16.1 11.6 2.41 4.4 2.27 9.14 2.33 14.1 0.0099 0.683 0.0198 1.37 0.03 2.07 0.0314 2.25 0.0563 4.49 0.0811 6.74 0.0206 1.56 0.0416 3.12 0.063 4.69 0.0551 4.1 0.105 8.2 0.153 12.3 0.0503 4.19 0.106 8.38 0.161 12.6 0.107 8.21 0.209 16.4 0.307 24.6-2.22 0.5-4.44 0.994-6.67 1.48-1.86 0.413-1.86 0.413-3.75 0.835-4.36 0.829-8.16 0.98-12.6 0.681-1-1-1-1-1.02-4.15 0.0425-1.41 0.0906-2.82 0.143-4.23 0.0354-1.14 0.0354-1.14 0.0715-2.29 0.0768-2.44 0.16-4.89 0.245-7.33 0.317-9.45 0.618-18.9 0.68-28.3 0.00886-0.692 0.0177-1.38 0.0268-2.1 0.0109-5.49-0.799-9.61-3.14-14.6-4.28-2.86-7.97-2.62-13-2-3.16 1.07-6.04 2.49-9 4-1.49 0.495-1.49 0.495-3 1-0.89 8.29-0.999 16.3-0.562 24.6 0.481 10.5 0.684 20.9 0.562 31.4-7.78 2.05-14.9 3.49-23 3-1.18-4.44-0.901-8.59-0.57-13.1 0.785-12.6 0.721-25.3 0.695-37.9-8.86e-4 -1.25-0.00177-2.49-0.00269-3.77-0.0213-25.7-0.479-51.4-1.12-77.2 3.69-2.31 6.5-3.53 10.8-4.19 0.976-0.159 1.95-0.317 2.96-0.48 3.78-0.388 7.43-0.385 11.2-0.332z" fill="#A0C27B"/>
<path transform="translate(813,576)" d="m0 0c0.782 0.153 1.56 0.307 2.37 0.465 7.07 1.82 11.1 6.27 14.8 12.4 2.36 5.75 2.03 12 2.08 18.1 0.0281 1.98 0.0567 3.95 0.0859 5.93 0.0411 3.09 0.078 6.17 0.104 9.26-0.0089 14.9-0.0089 14.9 2.9 29.5 1.04 3.4 1.36 6.76 1.7 10.3-2.03 1.04-4.08 2.06-6.12 3.06-1.14 0.568-2.27 1.14-3.45 1.72-3.8 1.35-5.63 1.54-9.43 0.215-1.68-2-1.68-2-2.88-4.44-0.41-0.803-0.82-1.61-1.24-2.43-0.883-2.13-0.883-2.13-0.883-4.13-0.496 0.459-0.993 0.918-1.5 1.39-7.89 7.13-14.4 11-25.4 10.8-7.87-0.762-14.1-4.14-19.1-10.2-3.49-5.71-4.66-11-3.6-17.6 2.18-8.66 7.51-15.1 15-19.9 11-5.84 21.4-5.71 33.6-5.46-0.996-8.89-0.996-8.89-6-16-8.33-2.78-17-1.5-24.8 2.09-3.22 1.33-5.77 1.46-9.19 0.906-2.4-1.84-2.88-3.33-3.39-6.27-0.265-2.24-0.466-4.48-0.605-6.73 13.2-8.47 29-16.4 45-13z" fill="#A0C27B"/>
<path transform="translate(1384 577)" d="m0 0c6.21 3.26 10.2 8.9 13.1 15.1 2.75 9.86 1.3 21.6-1.7 31.2-1.3 1.76-1.3 1.76-3.93 2.55-1.67 0.195-1.67 0.195-3.38 0.395-1.26 0.148-2.51 0.296-3.81 0.449-5.17 0.486-10.4 0.732-15.5 0.967-6.65 0.325-13.1 1.2-19.6 2.4-0.586 4.69-0.223 7.27 2.5 11.2 4.13 5 8.52 7.43 14.9 8.25 8.5-1.04 14.7-4.43 21.6-9.44 3.76 1.74 5.74 3.45 8 7 0.422 2.82 0.422 2.82 0 6-6.82 9.15-15.1 14.3-26 17-9.81 1.18-18.7 0.834-27-5-0.63-0.388-1.26-0.776-1.91-1.18-7.83-5.56-12-16.3-13.6-25.4-1.85-16.9 3.26-33 13.2-46.8 10.5-12.6 27-20.8 43.2-14.7z" fill="#A0C27B"/>
<path transform="translate(1195,578)" d="m0 0c0.138 8.41-0.0359 16.8-0.543 25.2-0.0771 1.32-0.0771 1.32-0.156 2.66-0.214 3.63-0.431 7.26-0.673 10.9-0.177 2.69-0.332 5.38-0.484 8.07-0.0888 1.21-0.0888 1.21-0.179 2.45-0.296 5.67 0.643 9.6 3.03 14.8 2.96 2.79 5.44 3.19 9.38 3.31 5.46-0.191 10-1.26 14.6-4.31 0.425-2.53 0.425-2.53 0.309-5.52-0.00668-1.15-0.0134-2.31-0.0202-3.5-0.0218-1.25-0.0435-2.5-0.0659-3.79-0.0137-1.96-0.0275-3.91-0.0405-5.87-0.0219-2.74-0.0571-5.49-0.0927-8.23-0.0617-4.8-0.114-9.6-0.149-14.4-0.0199-2.56-0.0496-5.12-0.0899-7.67-0.00983-1.15-0.0197-2.31-0.0298-3.5-0.0135-1.02-0.027-2.04-0.0409-3.09 0.22-2.43 0.22-2.43 2.22-4.43 2.61-0.659 5.17-1.21 7.81-1.69 0.712-0.142 1.42-0.285 2.16-0.432 4.03-0.749 7.07-0.812 11 0.119 0.105 14.1 0.053 28.2-0.625 42.2-0.523 11.6-0.758 22.8 3.62 33.8 0.0765 2.33 0.0914 4.67 0 7-6.24 3.58-10.8 5.67-18 5-0.815-1.6-1.63-3.21-2.44-4.81-0.452-0.893-0.905-1.79-1.37-2.71-1.19-2.48-1.19-2.48-2.19-5.48-3.73 1.05-6.06 2.82-8.88 5.38-6.45 5.84-12.2 8.96-21.1 8.77-6.53-0.443-10.4-2.87-15.3-7-4.12-4.92-5.17-9.94-5.29-16.2-0.0166-0.669-0.0332-1.34-0.0504-2.03-0.0501-2.19-0.0791-4.37-0.106-6.56-0.027-1.53-0.0548-3.06-0.0831-4.59-0.0557-3.19-0.1-6.39-0.138-9.58-0.0492-4.1-0.13-8.19-0.22-12.3-0.0647-3.15-0.111-6.31-0.151-9.46-0.0221-1.51-0.0505-3.02-0.0853-4.53-0.0462-2.11-0.0667-4.21-0.0805-6.32-0.0176-1.2-0.0352-2.4-0.0533-3.63 0.463-2.93 0.463-2.93 2.27-4.78 3.08-1.62 6.24-2.27 9.63-2.9 0.655-0.138 1.31-0.276 1.99-0.418 3.88-0.754 6.76-0.718 10.6 0.168z" fill="#A0C27B"/>
<path transform="translate(624 543)" d="m0 0c1.36 7.55e-5 1.36 7.55e-5 2.74 1.53e-4 2.95 0.00362 5.89 0.0225 8.84 0.0428 2.03 0.00753 4.05 0.0148 6.08 0.0217 12.5 0.0579 24.9 0.242 37.4 0.603 0.706 0.0195 1.41 0.0389 2.14 0.059 11.4 0.328 11.4 0.328 12.6 1.5 0.1 2.06 0.13 4.12 0.125 6.19 0.00387 1.69 0.00387 1.69 0.00781 3.42-0.133 3.39-0.133 3.39-1.13 9.39-10.2-0.33-20.5-0.66-31-1-0.918 27.8-0.964 55.4 0.667 83.2 0.405 7.28 0.438 14.5 0.333 21.8-3.98 0.0289-7.96 0.0468-11.9 0.0625-1.7 0.0126-1.7 0.0126-3.44 0.0254-1.08 0.00322-2.16 0.00645-3.27 0.00977-1.5 0.00786-1.5 0.00786-3.03 0.0159-2.32-0.114-2.32-0.114-3.32-1.11-0.0953-1.35-0.122-2.71-0.12-4.07-0.00137-0.876-0.00275-1.75-0.00417-2.66 0.0036-0.969 0.00719-1.94 0.0109-2.94-1.46e-4 -1.01-2.92e-4 -2.03-4.43e-4 -3.07 7e-4 -3.37 0.00849-6.74 0.0163-10.1 0.00186-2.33 0.00329-4.66 0.00429-6.99 0.00383-6.15 0.0137-12.3 0.0247-18.4 0.0102-6.27 0.0148-12.5 0.0198-18.8 0.0107-12.3 0.0278-24.6 0.0488-36.9-1.22 0.0707-2.45 0.141-3.71 0.214-1.63 0.0927-3.26 0.185-4.88 0.278-0.804 0.0466-1.61 0.0933-2.44 0.141-16.8 0.95-16.8 0.95-20-0.634 0.856-13.9 0.856-13.9 3-18 4.53-2.56 9.12-2.27 14.2-2.23z" fill="#A0C27B"/>
<path transform="translate(1044 543)" d="m0 0c1.5 0.00187 3.01 0.00329 4.51 0.00429 3.91 0.00377 7.82 0.0136 11.7 0.0247 4.01 0.0103 8.02 0.0148 12 0.0198 7.83 0.0106 15.7 0.0276 23.5 0.0488 1.2 2.4 1.04 3.68 0.879 6.35-0.0483 0.851-0.0967 1.7-0.146 2.58-0.0561 0.889-0.112 1.78-0.17 2.7-0.0522 0.897-0.104 1.79-0.158 2.72-0.13 2.22-0.265 4.44-0.404 6.66-0.904-0.0355-1.81-0.0711-2.74-0.108-3.34-0.129-6.68-0.253-10-0.375-1.45-0.0535-2.9-0.109-4.34-0.166-2.08-0.0817-4.15-0.157-6.23-0.231-1.88-0.0707-1.88-0.0707-3.79-0.143-2.77-0.314-2.77-0.314-3.87 1.02-2.62 28.2-1.62 57.3-0.219 85.6 0.292 6.15 0.263 12.3 0.219 18.4-3.79 0.0289-7.58 0.0468-11.4 0.0625-1.08 0.00838-2.16 0.0168-3.27 0.0254-1.03 0.00322-2.06 0.00645-3.12 0.00977-0.953 0.00524-1.91 0.0105-2.89 0.0159-2.34-0.114-2.34-0.114-4.34-1.11 0.03-0.738 0.0599-1.48 0.0908-2.24 0.85-21.6 1.04-43.1 0.978-64.7-0.0105-4.2-0.0148-8.4-0.0198-12.6-0.0105-8.15-0.0274-16.3-0.0488-24.4-1.14 0.07-2.28 0.14-3.46 0.212-1.53 0.0921-3.05 0.184-4.58 0.276-0.749 0.0461-1.5 0.0922-2.27 0.14-14.5 0.866-14.5 0.866-19.7 0.372-0.66-0.66-1.32-1.32-2-2 0.296-2.74 0.699-5.31 1.25-8 0.135-0.737 0.271-1.47 0.41-2.23 1.07-5.5 1.07-5.5 3.34-7.77 9.93-1.52 20.2-1.13 30.2-1.1z" fill="#A0C27B"/>
<path transform="translate(907,579)" d="m0 0c1.77 1.6 1.77 1.6 3 3-2.14 7.24-5.23 13.5-9 20-3.74-0.585-6.51-1.67-9.81-3.5-4.6-2.35-8-3.5-13.2-3.5-2.84 1.32-2.84 1.32-5 3h-2c-0.292 2.38-0.292 2.38 0 5 1.39 1.64 1.39 1.64 3.5 2.81 0.813 0.503 1.63 1.01 2.46 1.52 3.64 2 7.36 3.79 11.1 5.6 8.49 4.12 15.2 8.71 19.9 17.1 2.26 6.78 1.82 15.1-0.773 21.8-5.27 9.57-13.1 14.8-23.2 18.2-14 1.13-24.1-1.47-35.4-10.3-1.93-2.05-2.69-2.9-2.64-5.75 1.98-2.69 1.98-2.69 4.75-5.56 1.35-1.43 1.35-1.43 2.73-2.88 1.83-1.86 3.66-3.72 5.52-5.56 3.32 1.55 6.27 3.47 9.31 5.5 5.72 3.64 9.58 5.7 16.5 5.25 3.26-0.472 3.26-0.472 5.19-2.75 0.584-2.87 0.584-2.87 0-6-4.77-6.09-11.9-8.55-18.7-11.7-7.17-3.42-13.7-7.12-18-14.1-2.41-7.21-3.31-12.6-0.242-19.7 5.04-9.32 12.5-16.3 22.5-19.9 10.1-2.75 21.8-2.01 31.4 2.34z" fill="#A0C27B"/>
<path transform="translate(1316,578)" d="m0 0c0.737 0.26 1.47 0.521 2.23 0.789 1.77 1.21 1.77 1.21 2.78 3.29-0.0242 4.52-2.11 7.78-4.27 11.7-0.409 0.78-0.817 1.56-1.24 2.36-3.11 5.75-3.11 5.75-6.51 6.89-2.02-0.559-2.02-0.559-4.25-1.44-5.55-1.95-9.67-2.17-15.4-0.5-5.39 3.1-7.54 6.78-9.75 12.5-1.76 8.46-0.74 18.9 3.53 26.5 3.56 4.51 6.69 6.11 12.4 6.86 6 0.23 9.4-1.67 13.8-5.53 0.656-0.632 1.31-1.26 1.99-1.91 1.7-1.46 1.7-1.46 3.7-1.46 2.45 2.39 4.38 4.99 6 8-0.442 5.31-4.41 10.2-8 14h-2c-0.495 1.49-0.495 1.49-1 3-7.12 5.86-15 7.51-24 7.3-8.6-0.877-15.4-5.86-21-12.3-8.13-13.4-8.46-28-5.16-43.1 3.15-11.6 9.39-21.8 18.2-29.9 0.636-0.593 1.27-1.19 1.93-1.8 10.8-9.06 23.3-9.95 36.1-5.2z" fill="#A0C27B"/>
<path transform="translate(1128,578)" d="m0 0c0.66 6.6 1.32 13.2 2 20h3c1.8-1.96 1.8-1.96 3.56-4.5 6.33-8.17 13.2-14.1 23.4-16.5 0.495 0.495 0.495 0.495 1 1-0.0662 2.47-0.194 4.91-0.375 7.38-0.0489 0.719-0.0978 1.44-0.148 2.18-0.406 5.82-0.898 11.6-1.48 17.4-1.68 0.22-1.68 0.22-3.4 0.445-8 1.16-14.6 2.14-21 7.35-1.57 1.21-1.57 1.21-3.57 1.21-0.14 16.7 0.193 33.3 1 50-8.09 1.96-15.7 3.52-24 3-0.953-3.85-0.959-7.02-0.57-11 0.728-8.98 0.721-17.9 0.701-26.9-0.00539-2.88-8.73e-6 -5.76 0.00635-8.64-6.6e-4 -1.86-0.00194-3.73-0.00391-5.59 0.00202-0.845 0.00405-1.69 0.00613-2.56-0.0197-5.09-0.338-10.1-0.905-15.1-0.326-3.07-0.439-6.12-0.484-9.21-0.0258-1.09-0.0516-2.19-0.0781-3.31 0.108-0.887 0.217-1.77 0.328-2.69 3.22-2.15 5.63-2.81 9.38-3.69 1.12-0.272 2.24-0.544 3.4-0.824 3.23-0.488 3.23-0.488 8.23 0.512z" fill="#A0C27B"/>
<path transform="translate(725,578)" d="m0 0c1.65 3.3 1.66 7 2.06 10.6 0.0909 0.802 0.182 1.6 0.275 2.43 0.224 1.98 0.444 3.96 0.662 5.95 0.99 0.33 1.98 0.66 3 1 0.473-0.641 0.946-1.28 1.43-1.94 4.62-6.04 9.32-10.7 15.6-15.1 0.908-0.639 1.82-1.28 2.75-1.94 2.61-1.23 4.4-1.14 7.25-1.06 0.368 9.47-0.771 18.6-2 28-1.56 0.112-1.56 0.112-3.15 0.227-8.47 0.745-16.4 1.63-22.9 7.77-1.97 3.91-2.19 6.93-1.98 11.3 0.0517 1.21 0.103 2.42 0.157 3.67 0.0964 1.92 0.0964 1.92 0.195 3.87 0.111 2.62 0.221 5.23 0.328 7.85 0.0535 1.26 0.107 2.52 0.162 3.82 0.169 4.42 0.257 8.84 0.26 13.3 0.00387 1.82 0.00387 1.82 0.00781 3.67-0.133 2.58-0.133 2.58-1.13 3.58-7.2 1.63-14.6 2.67-22 2-0.33-0.33-0.66-0.66-1-1 0.0982-2.78 0.256-5.54 0.438-8.31 1.19-21.5 1.78-43.6-1-65-1.03-8.71-1.03-8.71 0.629-11.5 2.83-1.8 5.6-2.31 8.87-2.98 1.23-0.263 2.45-0.526 3.71-0.797 2.95-0.399 4.65-0.623 7.35 0.547z" fill="#A0C27B"/>
<path transform="translate(367 583)" d="m0 0c0.896 0.0142 1.79 0.0284 2.71 0.043 1.35 0.00967 1.35 0.00967 2.72 0.0195 2.21 0.168 2.21 0.168 3.21 1.17 0.382 3.73 0.433 7.5 0.562 11.2 0.0417 1.18 0.0835 2.36 0.126 3.58 0.328 10.4 0.42 20.9 0.436 31.3 0.00259 0.765 0.00518 1.53 0.00784 2.32 0.0223 8.36-0.102 16.7-0.516 25.1-0.0455 1.09-0.0455 1.09-0.092 2.2-0.289 5.07-0.289 5.07-2.53 7.31-2.81 0.438-2.81 0.438-6 0-3.47-2.67-4.85-4.15-5.61-8.51-0.0204-1.36-0.0136-2.73 0.0154-4.09-0.00394-0.749-0.00789-1.5-0.0119-2.27-0.00669-2.46 0.0224-4.93 0.0527-7.39 0.00425-1.71 0.00658-3.43 0.00706-5.14 0.00616-3.59 0.0288-7.17 0.0645-10.8 0.0454-4.6 0.06-9.21 0.0637-13.8 0.00442-3.54 0.0197-7.07 0.0389-10.6 0.00889-1.7 0.0156-3.4 0.0202-5.09 0.00901-2.37 0.0314-4.74 0.0579-7.1 6.65e-4 -0.705 0.00133-1.41 0.00201-2.14 0.106-6.86 0.106-6.86 4.65-7.31z" fill="#000002"/>
<path transform="translate(398 583)" d="m0 0c0.896 0.0142 1.79 0.0284 2.71 0.043 1.35 0.00967 1.35 0.00967 2.72 0.0195 2.21 0.168 2.21 0.168 3.21 1.17 0.106 2.51 0.147 5 0.145 7.52 0.00504 1.18 0.00504 1.18 0.0102 2.38 0.00954 2.61 0.0115 5.23 0.0125 7.84 0.00321 1.81 0.00657 3.62 0.0101 5.43 6e-3 3.8 0.00784 7.6 0.00725 11.4-1.02e-4 4.88 0.0136 9.75 0.0308 14.6 0.0111 3.74 0.0131 7.48 0.0126 11.2 0.00118 1.8 0.00563 3.6 0.0133 5.4 0.00975 2.51 0.00694 5.02 8.95e-4 7.54 0.00562 0.749 0.0112 1.5 0.017 2.27-0.0316 5.15-0.0316 5.15-2.26 7.38-3.75 0.416-6.06 0.667-9.2-1.55-2.42-3.29-2.35-6.1-2.29-10-0.0038-0.758-0.00759-1.52-0.0115-2.3-0.0074-2.5 0.014-5 0.0364-7.5 0.00238-1.74 0.00329-3.48 0.00278-5.21 0.00313-3.64 0.0197-7.28 0.0465-10.9 0.034-4.67 0.0416-9.34 0.0401-14 5.43e-4 -3.59 0.0115-7.18 0.026-10.8 0.00638-1.72 0.0103-3.45 0.0118-5.17 0.00432-2.4 0.0218-4.81 0.0432-7.21-9.06e-4 -0.716-0.00181-1.43-0.00275-2.17 0.0906-6.94 0.0906-6.94 4.64-7.38z" fill="#000002"/>
<path transform="translate(337 583)" d="m0 0c0.896 0.0142 1.79 0.0284 2.71 0.043 1.35 0.00967 1.35 0.00967 2.72 0.0195 2.21 0.168 2.21 0.168 3.21 1.17 0.106 2.51 0.147 5 0.145 7.52 0.00504 1.18 0.00504 1.18 0.0102 2.38 0.00954 2.61 0.0115 5.23 0.0125 7.84 0.00321 1.81 0.00657 3.62 0.0101 5.43 6e-3 3.8 0.00784 7.6 0.00725 11.4-1.02e-4 4.88 0.0136 9.75 0.0308 14.6 0.0111 3.74 0.0131 7.48 0.0126 11.2 0.00118 1.8 0.00563 3.6 0.0133 5.4 0.00975 2.51 0.00694 5.02 8.95e-4 7.54 0.00562 0.749 0.0112 1.5 0.017 2.27-0.0316 5.15-0.0316 5.15-2.26 7.38-3.75 0.416-6.06 0.667-9.2-1.55-2.42-3.29-2.35-6.1-2.29-10-0.0038-0.758-0.00759-1.52-0.0115-2.3-0.0074-2.5 0.014-5 0.0364-7.5 0.00238-1.74 0.00329-3.48 0.00278-5.21 0.00313-3.64 0.0197-7.28 0.0465-10.9 0.034-4.67 0.0416-9.34 0.0401-14 5.43e-4 -3.59 0.0115-7.18 0.026-10.8 0.00638-1.72 0.0103-3.45 0.0118-5.17 0.00432-2.4 0.0218-4.81 0.0432-7.21-9.06e-4 -0.716-0.00181-1.43-0.00275-2.17 0.0906-6.94 0.0906-6.94 4.64-7.38z" fill="#000002"/>
<path transform="translate(353 515)" d="m0 0c1.3-0.0241 1.3-0.0241 2.62-0.0487 3.96-0.0445 7.91-0.0855 11.9-0.109 2.09-0.0166 4.17-0.0439 6.26-0.082 3.01-0.0548 6.01-0.0766 9.02-0.0913 0.93-0.0227 1.86-0.0453 2.82-0.0687 4.39 0.0143 6.61 0.182 10.3 2.67 2.38 3.69 2.41 5.88 2.2 10.2-0.0451 1.25-0.0902 2.51-0.137 3.8-0.087 1.43-0.087 1.43-0.176 2.89-7.65 0.0253-15.3 0.0428-23 0.0549-2.61 0.00504-5.21 0.0119-7.82 0.0205-3.74 0.0121-7.48 0.0178-11.2 0.0222-1.17 0.00516-2.34 0.0103-3.55 0.0156-1.08 7.55e-5 -2.16 1.51e-4 -3.28 2.29e-4 -1.43 0.00333-1.43 0.00333-2.89 0.00673-2.29-0.12-2.29-0.12-4.29-1.12 0.0602-2.08 0.149-4.17 0.25-6.25 0.0464-1.16 0.0928-2.32 0.141-3.52 0.704-3.74 1.67-4.91 4.61-7.23 2.29-1.15 3.64-1.15 6.19-1.19z" fill="#000002"/>
<path transform="translate(1375 598)" d="m0 0c2.44 4.88 1.87 9.77 1.56 15.1-6.66 1.55-13.2 2.33-20 2.78-3.38 0.246-6.67 0.675-10 1.22-1.18-3.55-0.505-4.72 1.05-7.99 0.315-0.622 0.63-1.24 0.955-1.89 0.32-0.632 0.639-1.26 0.969-1.91 3.29-6.17 6.3-9.04 13-11.1 4.92-0.103 8.51 0.794 12.4 3.81z" fill="#000002"/>
<path transform="translate(805,628)" d="m0 0c5.53 2.06 5.53 2.06 7 5 0.659 4.79 0.76 7.98-2.19 11.9-4.75 3.48-9.83 5.35-15.8 5.06-3.43-1.19-6.11-2.96-8.5-5.75-0.79-3.56-0.58-6.81 0.5-10.2 5.62-6.78 10.6-6.64 19-6z" fill="#000002"/>
</svg>
